<svg width="70" height="78" viewBox="0 0 70 78" fill="none" xmlns="http://www.w3.org/2000/svg">
<g clip-path="url(#clip0_3936_1129)">
<path d="M2.1056 32.9675C1.50901 32.9675 1.00928 32.7423 0.606413 32.292C0.202137 31.8433 0 31.2867 0 30.6222V29.2737C0 27.5539 0.772053 26.1756 2.31616 25.139C3.86027 24.104 5.89568 23.5865 8.4224 23.5865C8.87861 23.5865 9.30885 23.606 9.71313 23.6451C10.116 23.6842 10.5104 23.7428 10.8965 23.821C10.4052 24.6028 10.0451 25.4431 9.8163 26.3421C9.5889 27.2412 9.4752 28.1988 9.4752 29.2151V32.9675H2.1056ZM14.7392 32.9675C14.1426 32.9675 13.6422 32.7423 13.2379 32.292C12.835 31.8433 12.6336 31.2867 12.6336 30.6222V29.2151C12.6336 26.6744 13.8008 24.6121 16.1352 23.0283C18.4682 21.446 21.5122 20.6549 25.2672 20.6549C29.0573 20.6549 32.1104 21.446 34.4265 23.0283C36.7427 24.6121 37.9008 26.6744 37.9008 29.2151V30.6222C37.9008 31.2867 37.6986 31.8433 37.2944 32.292C36.8915 32.7423 36.3918 32.9675 35.7952 32.9675H14.7392ZM41.0592 32.9675V29.2151C41.0592 28.1988 40.9364 27.2412 40.6907 26.3421C40.4451 25.4431 40.0941 24.6028 39.6379 23.821C40.0239 23.7428 40.4191 23.6842 40.8234 23.6451C41.2262 23.606 41.6558 23.5865 42.112 23.5865C44.6387 23.5865 46.6741 24.104 48.2182 25.139C49.7623 26.1756 50.5344 27.5539 50.5344 29.2737V30.6222C50.5344 31.2867 50.3322 31.8433 49.928 32.292C49.5251 32.7423 49.0254 32.9675 48.4288 32.9675H41.0592ZM8.4224 21.2412C7.26432 21.2412 6.27328 20.7816 5.44929 19.8622C4.6239 18.9444 4.2112 17.8406 4.2112 16.5507C4.2112 15.2608 4.6239 14.1562 5.44929 13.2369C6.27328 12.3191 7.26432 11.8602 8.4224 11.8602C9.58048 11.8602 10.5715 12.3191 11.3955 13.2369C12.2209 14.1562 12.6336 15.2608 12.6336 16.5507C12.6336 17.8406 12.2209 18.9444 11.3955 19.8622C10.5715 20.7816 9.58048 21.2412 8.4224 21.2412ZM42.112 21.2412C40.9539 21.2412 39.9622 20.7816 39.1368 19.8622C38.3128 18.9444 37.9008 17.8406 37.9008 16.5507C37.9008 15.2608 38.3128 14.1562 39.1368 13.2369C39.9622 12.3191 40.9539 11.8602 42.112 11.8602C43.2701 11.8602 44.2618 12.3191 45.0872 13.2369C45.9112 14.1562 46.3232 15.2608 46.3232 16.5507C46.3232 17.8406 45.9112 18.9444 45.0872 19.8622C44.2618 20.7816 43.2701 21.2412 42.112 21.2412ZM25.2672 18.896C23.5125 18.896 22.0211 18.2119 20.7928 16.8439C19.5645 15.4758 18.9504 13.8146 18.9504 11.8602C18.9504 9.90584 19.5645 8.24462 20.7928 6.87656C22.0211 5.50849 23.5125 4.82446 25.2672 4.82446C27.0219 4.82446 28.5133 5.50849 29.7416 6.87656C30.9699 8.24462 31.584 9.90584 31.584 11.8602C31.584 13.8146 30.9699 15.4758 29.7416 16.8439C28.5133 18.2119 27.0219 18.896 25.2672 18.896Z" fill="white"/>
</g>
<defs>
<clipPath id="clip0_3936_1129">
<rect width="69.3043" height="77.1923" fill="white"/>
</clipPath>
</defs>
</svg>
